<mxfile host="app.diagrams.net" agent="Mozilla/5.0 (X11; Ubuntu; Linux x86_64; rv:133.0) Gecko/20100101 Firefox/133.0" version="26.2.12">
  <diagram name="Страница — 1" id="yCYbH7EpAb5s-7bjwjg7">
    <mxGraphModel dx="1500" dy="1000" grid="1" gridSize="10" guides="1" tooltips="1" connect="1" arrows="1" fold="1" page="1" pageScale="1" pageWidth="827" pageHeight="1169" math="0" shadow="0">
      <root>
        <mxCell id="0" />
        <mxCell id="1" parent="0" />
        <mxCell id="LIe4gN6LJp_e8RZes2z6-5" style="edgeStyle=orthogonalEdgeStyle;rounded=0;orthogonalLoop=1;jettySize=auto;html=1;exitX=0.5;exitY=1;exitDx=0;exitDy=0;entryX=0.5;entryY=0;entryDx=0;entryDy=0;" edge="1" parent="1" source="LIe4gN6LJp_e8RZes2z6-1" target="LIe4gN6LJp_e8RZes2z6-4">
          <mxGeometry relative="1" as="geometry" />
        </mxCell>
        <mxCell id="LIe4gN6LJp_e8RZes2z6-1" value="Начало" style="ellipse;whiteSpace=wrap;html=1;" vertex="1" parent="1">
          <mxGeometry x="140" y="40" width="120" height="80" as="geometry" />
        </mxCell>
        <mxCell id="LIe4gN6LJp_e8RZes2z6-2" value="Конец" style="ellipse;whiteSpace=wrap;html=1;" vertex="1" parent="1">
          <mxGeometry x="140" y="560" width="120" height="80" as="geometry" />
        </mxCell>
        <mxCell id="LIe4gN6LJp_e8RZes2z6-8" style="edgeStyle=orthogonalEdgeStyle;rounded=0;orthogonalLoop=1;jettySize=auto;html=1;exitX=0.5;exitY=1;exitDx=0;exitDy=0;entryX=0.5;entryY=0;entryDx=0;entryDy=0;" edge="1" parent="1" source="LIe4gN6LJp_e8RZes2z6-4" target="LIe4gN6LJp_e8RZes2z6-7">
          <mxGeometry relative="1" as="geometry" />
        </mxCell>
        <mxCell id="LIe4gN6LJp_e8RZes2z6-4" value="сгенерировать судоку" style="shape=process;whiteSpace=wrap;html=1;backgroundOutline=1;" vertex="1" parent="1">
          <mxGeometry x="140" y="200" width="120" height="60" as="geometry" />
        </mxCell>
        <mxCell id="LIe4gN6LJp_e8RZes2z6-9" style="edgeStyle=orthogonalEdgeStyle;rounded=0;orthogonalLoop=1;jettySize=auto;html=1;exitX=0.5;exitY=1;exitDx=0;exitDy=0;entryX=0.5;entryY=0;entryDx=0;entryDy=0;" edge="1" parent="1" source="LIe4gN6LJp_e8RZes2z6-7" target="LIe4gN6LJp_e8RZes2z6-2">
          <mxGeometry relative="1" as="geometry" />
        </mxCell>
        <mxCell id="LIe4gN6LJp_e8RZes2z6-7" value="Провести решение судоку пользователем" style="shape=process;whiteSpace=wrap;html=1;backgroundOutline=1;" vertex="1" parent="1">
          <mxGeometry x="140" y="360" width="120" height="60" as="geometry" />
        </mxCell>
      </root>
    </mxGraphModel>
  </diagram>
</mxfile>
